<?xml version="1.0" encoding="utf-8"?>
<!-- Generator: Adobe Illustrator 19.0.0, SVG Export Plug-In . SVG Version: 6.00 Build 0)  -->
<svg version="1.1" id="Layer_1" xmlns="http://www.w3.org/2000/svg" xmlns:xlink="http://www.w3.org/1999/xlink" x="0px" y="0px"
	 viewBox="-293 385 24 24" enable-background="new -293 385 24 24" xml:space="preserve">
<path d="M-273.5,390h-10c-1.3,0-2.8,0.8-3.6,1.8l-2.6,3.7c-0.6,0.9-1.2,1.7-1.2,1.7c-0.1,0.2-0.1,0.5,0,0.7c0,0,0.6,0.8,1.2,1.7
	l2.6,3.7c0.7,1,2.3,1.8,3.6,1.8h10c1.4,0,2.5-1.1,2.5-2.5v-10C-271,391.1-272.1,390-273.5,390z M-275.8,399.8c0.4,0.4,0.4,1,0,1.4
	c-0.2,0.2-0.5,0.3-0.7,0.3s-0.5-0.1-0.7-0.3l-2.3-2.3l-2.3,2.3c-0.2,0.2-0.5,0.3-0.7,0.3s-0.5-0.1-0.7-0.3c-0.4-0.4-0.4-1,0-1.4
	l2.3-2.3l-2.3-2.3c-0.4-0.4-0.4-1,0-1.4s1-0.4,1.4,0l2.3,2.3l2.3-2.3c0.4-0.4,1-0.4,1.4,0s0.4,1,0,1.4l-2.3,2.3L-275.8,399.8z"/>
</svg>
