<?xml version="1.0" encoding="utf-8"?>
<!-- Generator: Adobe Illustrator 19.0.0, SVG Export Plug-In . SVG Version: 6.00 Build 0)  -->
<svg version="1.1" id="Layer_1" xmlns:sketch="http://www.bohemiancoding.com/sketch/ns"
	 xmlns="http://www.w3.org/2000/svg" xmlns:xlink="http://www.w3.org/1999/xlink" x="0px" y="0px" viewBox="-289 386.2 32 22.4"
	 enable-background="new -289 386.2 32 22.4" xml:space="preserve">
<title></title>
<desc></desc>
<g id="Page-1">
	<g id="icon-21-cloud-add">
		<path id="cloud-add" d="M-273,399v-2.5c0-0.3,0.2-0.5,0.5-0.5c0.3,0,0.5,0.2,0.5,0.5v2.5h2.5c0.3,0,0.5,0.2,0.5,0.5
			c0,0.3-0.2,0.5-0.5,0.5h-2.5v2.5c0,0.3-0.2,0.5-0.5,0.5c-0.3,0-0.5-0.2-0.5-0.5V400h-2.5c-0.3,0-0.5-0.2-0.5-0.5
			c0-0.3,0.2-0.5,0.5-0.5H-273L-273,399z M-281.9,397.1c-1.8,0.4-3.1,2-3.1,3.9c0,2.2,1.8,4,4,4h17c2.2,0,4-1.8,4-4
			c0-1.9-1.3-3.5-3-3.9l0,0c0-0.2,0-0.4,0-0.6c0-2.5-2-4.5-4.5-4.5c-1.2,0-2.3,0.5-3.1,1.3c-1-1.9-3-3.3-5.4-3.3c-3.3,0-6,2.7-6,6
			C-282,396.4-282,396.7-281.9,397.1L-281.9,397.1L-281.9,397.1z M-262,396.4c1.8,0.8,3,2.5,3,4.6c0,2.8-2.2,5-5,5h-17
			c-2.8,0-5-2.2-5-5c0-2.1,1.2-3.8,3-4.6l0,0c0-0.1,0-0.3,0-0.4c0-3.9,3.1-7,7-7c2.3,0,4.3,1.1,5.6,2.8c0.8-0.5,1.8-0.8,2.9-0.8
			C-264.5,391-262,393.4-262,396.4L-262,396.4L-262,396.4z"/>
	</g>
</g>
</svg>
