<?xml version="1.0" encoding="utf-8"?>
<!-- Generator: Adobe Illustrator 19.0.0, SVG Export Plug-In . SVG Version: 6.00 Build 0)  -->
<svg version="1.1" id="Layer_1" xmlns="http://www.w3.org/2000/svg" xmlns:xlink="http://www.w3.org/1999/xlink" x="0px" y="0px"
	 viewBox="206 -116 1024 1024" enable-background="new 206 -116 1024 1024" xml:space="preserve">
<path d="M1016,33.3c46,0,86,40,86,86v596c0,46-40,86-86,86H420c-48,0-86-40-86-86v-170h86v170h596v-596H420v170h-86v-170
	c0-46,38-86,86-86L1016,33.3L1016,33.3z M636,571.3l110-112H334v-84h412l-110-112l60-60l214,214l-214,214L636,571.3z"/>
</svg>
