<?xml version="1.0" encoding="utf-8"?>
<!-- Generator: Adobe Illustrator 19.0.0, SVG Export Plug-In . SVG Version: 6.00 Build 0)  -->
<svg version="1.1" id="Layer_1" xmlns="http://www.w3.org/2000/svg" xmlns:xlink="http://www.w3.org/1999/xlink" x="0px" y="0px"
	 viewBox="206 -116 1024 1024" enable-background="new 206 -116 1024 1024" xml:space="preserve">
<path d="M932,289.3v-86H504v86H932z M932,459.3v-84H504v84H932z M804,631.3v-86H504v86H804z M718,33.3c-24,0-42,18-42,42
	s18,44,42,44s42-20,42-44S742,33.3,718,33.3z M1016,33.3c46,0,86,40,86,86v596c0,46-40,86-86,86H420c-46,0-86-40-86-86v-596
	c0-46,40-86,86-86h178c18-50,64-86,120-86s102,36,120,86L1016,33.3L1016,33.3z"/>
</svg>
