<?xml version="1.0" encoding="UTF-8"?><!DOCTYPE svg PUBLIC "-//W3C//DTD SVG 1.1//EN" "http://www.w3.org/Graphics/SVG/1.1/DTD/svg11.dtd"><svg xmlns="http://www.w3.org/2000/svg"><symbol id="icon-backspace" viewBox="0 0 24 24">
    <path d="M19.5 5h-10c-1.266 0-2.834.807-3.57 1.837L3.32 10.49l-1.199 1.679c-.121.175-.122.492.003.664l1.188 1.664 2.619 3.667C6.666 19.193 8.233 20 9.5 20h10c1.379 0 2.5-1.122 2.5-2.5v-10C22 6.122 20.879 5 19.5 5zm-2.293 9.793a.999.999 0 1 1-1.414 1.414L13.5 13.914l-2.293 2.293a.997.997 0 0 1-1.414 0 .999.999 0 0 1 0-1.414l2.293-2.293-2.293-2.293a.999.999 0 1 1 1.414-1.414l2.293 2.293 2.293-2.293a.999.999 0 1 1 1.414 1.414L14.914 12.5l2.293 2.293z"/>
</symbol><symbol id="icon-facebook" viewBox="0 0 10 19">
    <title>
        facebook
    </title>
    <path d="M9.766.157v2.946H8.014c-.64 0-1.071.134-1.295.402-.223.268-.335.67-.335 1.205v2.11h3.27l-.435 3.303H6.384v8.471H2.97v-8.47H.123V6.82H2.97V4.387c0-1.384.387-2.457 1.161-3.22C4.904.404 5.934.023 7.222.023c1.093 0 1.941.045 2.544.134z" fill-rule="evenodd"/>
</symbol></svg>